<svg width="328" height="150" viewBox="0 0 328 150" fill="none" xmlns="http://www.w3.org/2000/svg">
<path d="M21.1521 72.0787C21.5371 73.6086 21.907 75.1252 22.302 76.6335C24.1336 83.6509 25.8485 90.7084 28.3316 97.5273C29.6916 101.261 31.3631 104.888 33.038 108.496C34.8296 112.353 36.7394 116.159 38.6927 119.938C41.3258 125.033 44.094 130.059 47.3421 134.794C48.3537 136.27 49.4703 137.702 50.7086 138.988C52.1785 140.513 52.7701 140.585 54.4134 139.026C56.4832 137.064 57.9215 134.615 59.3264 132.169C63.8244 124.344 67.4876 116.114 71.0257 107.825C73.3122 102.468 75.4737 97.0618 77.2219 91.4993C79.2818 84.9457 80.9851 78.3019 82.28 71.5548C82.3083 71.4063 82.3616 71.2628 82.455 70.9358C85.6898 73.7404 88.3013 76.9055 90.5111 80.4075C95.5892 88.4544 97.9557 97.2787 97.4774 106.755C96.2458 131.145 77.3519 147.283 58.0715 149.538C34.1029 152.339 15.2308 137.315 9.31448 118.505C5.96469 107.857 6.45799 97.3088 10.7227 86.9678C12.8693 81.7623 18.7372 73.3684 21.1521 72.0787Z" fill="black"/>
<path d="M81.7882 21.2715C76.7202 18.6254 71.5555 16.1978 65.9858 14.4126C66.7675 13.2346 67.4574 12.1719 68.1707 11.1241C69.8339 8.67815 71.5088 6.23889 73.1787 3.79797C73.8337 2.84029 74.4836 1.8776 75.1469 0.924921C75.2886 0.721372 75.4536 0.522827 75.6469 0.370999C76.4935 -0.293039 77.1152 -0.0544523 77.3451 0.996663C78.5617 6.54088 79.7717 12.0868 81.0082 17.6276C81.2682 18.7955 81.6282 19.9418 81.9432 21.0997C81.8882 21.1547 81.8382 21.2131 81.7882 21.2715Z" fill="black"/>
<path d="M35.811 15.3837C30.5147 16.7201 25.395 18.2467 20.527 20.7177C20.5086 20.4724 20.462 20.3356 20.4936 20.2188C21.2819 17.3374 21.6986 14.4026 21.8152 11.4211C21.8969 9.35729 21.9802 7.29344 22.0852 5.22959C22.1535 3.89484 22.2685 2.56176 22.3485 1.22534C22.3885 0.557966 22.8485 0.424489 23.2918 0.654733C23.9434 0.991757 24.6451 1.38217 25.0967 1.93776C28.5748 6.20228 31.9996 10.5102 35.4377 14.8081C35.5461 14.9466 35.631 15.1051 35.811 15.3837Z" fill="black"/>
<path d="M64.7458 44.2792C62.6509 44.4761 60.4777 42.5007 60.5277 39.9479C60.571 37.7373 62.5776 35.8036 64.7908 35.8219C67.224 35.8436 69.0639 37.9742 69.0289 40.1315C68.9922 42.2754 67.1373 44.4611 64.7458 44.2792Z" fill="black"/>
<path d="M35.4578 40.6337C35.2428 38.5481 37.1027 36.4059 39.6409 36.3992C42.0774 36.3925 43.8423 38.2094 43.8806 40.6804C43.9173 42.9995 42.2424 44.8882 39.6676 44.9115C36.8927 44.9382 35.2628 42.6642 35.4578 40.6337Z" fill="black"/>
<path d="M76.6301 55.5346C76.8784 55.4128 77.1201 55.2726 77.3768 55.1692C81.7048 53.429 86.1979 52.2594 90.7376 51.23C95.534 50.1405 100.31 48.9676 105.097 47.8331C105.222 47.803 105.352 47.7964 105.54 47.9148C105.36 47.9949 105.187 48.0983 105 48.1551C98.6121 50.0688 92.2442 52.0575 85.8229 53.8528C82.9314 54.662 79.9333 55.0874 76.9818 55.683C76.8851 55.7031 76.7785 55.6764 76.6768 55.6714C76.6618 55.6263 76.6451 55.5813 76.6301 55.5346Z" fill="black"/>
<path d="M102.242 69.2957C100.374 69.8647 77.3019 66.2675 75.9053 65.1213C76.6236 65.1213 77.1969 65.0946 77.7668 65.1246C83.2865 65.4199 88.6611 66.6479 94.0675 67.6773C96.6956 68.1779 99.3205 68.6951 101.945 69.2056C102.027 69.2206 102.105 69.254 102.242 69.2957Z" fill="black"/>
<path d="M76.4785 60.9636C85.138 59.0399 94.0024 59.3452 102.767 58.5627C102.777 58.6412 102.789 58.7196 102.799 58.7997C102.329 58.8798 101.86 58.9749 101.387 59.0349C98.2005 59.4453 95.0174 59.8858 91.8242 60.2445C88.5194 60.6166 85.208 60.9369 81.8932 61.2239C80.4716 61.3474 79.0384 61.3374 77.6101 61.3607C77.2351 61.3674 76.8585 61.2723 76.4818 61.2256C76.4818 61.1371 76.4802 61.0504 76.4785 60.9636Z" fill="black"/>
<path d="M0.0649984 47.7463C1.42491 48.0617 2.7865 48.3687 4.14308 48.6923C9.50108 49.9704 14.8758 51.1783 20.2054 52.5665C22.9203 53.2739 25.5518 54.3033 28.2183 55.1959C28.4582 55.276 28.6799 55.4178 28.9082 55.5313C28.8866 55.598 28.8632 55.6647 28.8416 55.7315C27.8966 55.5863 26.9517 55.4545 26.0101 55.296C21.367 54.5202 16.899 53.0687 12.4026 51.7256C8.53448 50.571 4.66971 49.4014 0.804953 48.2369C0.531637 48.1551 0.268317 48.045 0 47.9466C0.0233319 47.8798 0.0449997 47.8131 0.0649984 47.7463Z" fill="black"/>
<path d="M29.5114 65.42C20.9719 67.916 12.0842 68.1813 3.36803 69.5377C3.3497 69.4243 3.33136 69.3092 3.3147 69.1957C12.0225 67.7926 20.5636 65.3316 29.4514 65.073C29.4714 65.1881 29.4914 65.3049 29.5114 65.42Z" fill="black"/>
<path d="M29.153 61.1638C28.8197 61.2422 28.5647 61.3573 28.3131 61.3506C25.9782 61.2872 23.64 61.2789 21.3135 61.1004C18.832 60.9102 16.3622 60.5681 13.8906 60.2645C11.1725 59.9308 8.45932 59.5637 5.74449 59.215C4.89121 59.1049 4.03459 59.0115 3.18131 58.903C3.02132 58.883 2.86466 58.8279 2.70801 58.7896C2.71634 58.7295 2.72468 58.6694 2.73301 58.6094C4.50623 58.7128 6.27779 58.8163 8.05101 58.9197C8.93262 58.9714 9.81424 59.0332 10.6958 59.0815C12.5057 59.18 14.3156 59.2651 16.1255 59.3668C20.2653 59.5971 24.3983 59.8924 28.4497 60.8568C28.6031 60.8935 28.7564 60.9352 28.9047 60.9869C28.9664 61.0086 29.013 61.062 29.153 61.1638Z" fill="black"/>
<path d="M49.022 54.9422C51.2602 54.6552 53.46 54.7303 55.8332 54.6636C55.2799 55.8915 54.8283 56.9009 54.37 57.907C53.8817 58.9815 53.4067 60.0626 52.8817 61.1188C52.7717 61.339 52.4801 61.5709 52.2518 61.5959C52.0651 61.616 51.7485 61.3774 51.6568 61.1755C50.7819 59.2551 49.9403 57.3197 49.097 55.3843C49.047 55.2692 49.052 55.1291 49.022 54.9422Z" fill="black"/>
<path d="M67.8974 90.7487C67.8974 92.3888 67.9091 94.0272 67.8908 95.6673C67.8858 96.1644 67.8308 96.6667 67.7374 97.1538C67.5874 97.933 66.5875 98.3518 65.7559 97.983C63.596 97.0287 61.4428 96.056 59.2846 95.0933C57.2514 94.1857 55.2216 93.273 53.1783 92.3921C52.9467 92.292 52.59 92.2887 52.3634 92.3938C48.6203 94.1473 44.8872 95.9259 41.1524 97.6977C40.7424 97.8929 40.3291 98.0832 39.9125 98.265C38.8459 98.7288 37.8493 98.1232 37.7843 96.9603C37.7243 95.8958 37.6726 94.8297 37.646 93.7636C37.5893 91.5362 37.551 89.3088 37.5027 87.0831C37.4977 86.8562 37.486 86.6277 37.4443 86.4058C37.1577 84.8741 38.1459 83.9849 39.6042 84.5204C41.2658 85.1311 42.9057 85.8068 44.5556 86.4525C47.0937 87.4452 49.6252 88.4563 52.1767 89.4089C52.5317 89.5424 53.0384 89.504 53.3983 89.3556C57.5164 87.6671 61.6178 85.9369 65.7326 84.2368C66.0709 84.0966 66.4858 84.0032 66.8375 84.0583C67.5758 84.1751 67.8891 84.6255 67.8924 85.418C67.9024 87.1966 67.8958 88.9718 67.8974 90.7487Z" fill="black"/>
<path d="M52.6532 120.43C51.1799 120.427 50.1917 119.427 50.2 117.947C50.2083 116.529 51.3066 115.418 52.6882 115.428C54.0798 115.438 55.1914 116.554 55.1997 117.947C55.2097 119.447 54.1981 120.433 52.6532 120.43Z" fill="black"/>
<path d="M50.2017 106.036C50.1934 104.542 51.17 103.534 52.6366 103.525C54.1498 103.517 55.2031 104.53 55.2014 105.993C55.1981 107.411 54.0598 108.541 52.6449 108.531C51.2967 108.521 50.2084 107.41 50.2017 106.036Z" fill="black"/>
<path d="M165.409 39.6441C163.868 39.6441 162.449 39.6441 160.925 39.6441C160.916 39.2984 160.897 38.9668 160.897 38.6351C160.894 30.5948 160.902 22.5573 160.891 14.5169C160.888 12.2462 160.302 10.1497 158.702 8.46347C156.589 6.23769 154.002 5.40021 151.005 6.12808C147.963 6.87001 146.069 8.8794 145.205 11.8443C144.952 12.7071 144.86 13.6429 144.857 14.5478C144.832 22.5573 144.843 30.5695 144.843 38.5789C144.843 38.9134 144.843 39.2506 144.843 39.6272C143.308 39.6272 141.868 39.6272 140.373 39.6272C140.359 39.3405 140.333 39.0904 140.333 38.8431C140.331 30.547 140.319 22.2509 140.336 13.9548C140.347 7.93231 144.59 2.73883 150.472 1.76364C155.529 0.923354 159.771 2.42126 162.833 6.72387C162.883 6.79413 162.934 6.86158 162.987 6.92903C163.004 6.95151 163.029 6.96556 163.178 7.08922C163.254 6.96275 163.324 6.8138 163.419 6.67891C165.866 3.23063 169.225 1.51633 173.429 1.57535C178.735 1.64842 182.54 4.15242 184.808 8.94684C185.509 10.4307 185.812 12.0241 185.81 13.6851C185.793 21.9811 185.801 30.2772 185.801 38.5733C185.801 38.9106 185.801 39.245 185.801 39.6272C184.3 39.6272 182.883 39.6272 181.348 39.6272C181.348 39.2787 181.348 38.9471 181.348 38.6127C181.348 30.4009 181.379 22.1919 181.334 13.9801C181.314 10.6611 179.754 8.16557 176.785 6.68172C172.132 4.35757 166.616 7.19039 165.577 12.3726C165.459 12.9544 165.417 13.5614 165.417 14.1572C165.406 22.2818 165.412 30.4065 165.412 38.5312C165.409 38.874 165.409 39.2141 165.409 39.6441Z" fill="black"/>
<path d="M323.372 65.0635C324.971 65.0635 326.425 65.0635 327.996 65.0635C327.996 65.3698 327.996 65.6452 327.996 65.9206C327.996 75.4195 328.01 84.9184 327.985 94.4173C327.979 96.3087 327.718 98.1804 326.899 99.92C325.182 103.568 322.221 105.498 318.312 106.066C315.711 106.443 313.194 106.114 310.828 104.934C307.612 103.326 305.819 100.651 305.07 97.0394C306.616 97.0057 308.084 97.0309 309.588 97.0225C309.683 97.2052 309.79 97.3682 309.86 97.548C310.898 100.218 313.208 101.797 316.196 101.761C316.96 101.752 317.743 101.702 318.478 101.522C321.32 100.828 323.144 98.5036 323.352 95.4094C323.453 93.9002 323.369 92.3799 323.369 90.7555C323.142 90.896 322.973 90.9691 322.838 91.0871C321.118 92.5766 319.089 93.1864 316.85 93.2482C314.639 93.3073 312.532 92.9138 310.584 91.8347C307.321 90.0276 305.553 87.1976 305.048 83.5442C304.935 82.7292 304.924 81.8945 304.921 81.0683C304.91 76.0603 304.916 71.0551 304.916 66.0471C304.916 65.7408 304.916 65.4316 304.916 65.0775C306.425 65.0775 307.837 65.0775 309.372 65.0775C309.372 65.4232 309.372 65.7548 309.372 66.0864C309.372 71.1506 309.363 76.2149 309.377 81.2791C309.38 82.4791 309.526 83.6678 310.003 84.7948C310.747 86.5484 311.998 87.7681 313.792 88.4089C315.759 89.1114 317.714 89.0524 319.611 88.17C321.621 87.2341 322.76 85.5873 323.212 83.4486C323.321 82.9231 323.36 82.3751 323.363 81.8355C323.374 76.5718 323.369 71.308 323.369 66.0415C323.372 65.738 323.372 65.4316 323.372 65.0635Z" fill="black"/>
<path d="M173.937 66.9156C172.48 66.9156 171.083 66.9015 169.688 66.924C169.276 66.9296 169.183 66.6514 169.018 66.3844C168.367 65.3474 167.797 64.2373 167.017 63.3071C164.59 60.4125 161.41 59.0241 157.656 58.8415C151.246 58.5267 145.929 62.8996 144.026 68.4837C141.983 74.4753 143.089 79.9386 147.391 84.6262C149.63 87.0656 152.447 88.5157 155.787 88.7771C161.396 89.2155 165.605 86.8942 168.549 82.156C168.804 81.7457 169.02 81.3129 169.27 80.8632C170.808 80.8632 172.343 80.8632 173.954 80.8632C173.889 81.1133 173.858 81.3297 173.78 81.5293C171.319 87.7766 166.885 91.7729 160.246 92.9757C152.512 94.3753 145.547 90.8062 141.61 84.5504C139.907 81.844 138.905 78.8847 138.664 75.6978C138.215 69.7905 139.848 64.5464 143.934 60.1989C147.085 56.8461 150.969 54.9211 155.59 54.5557C159.575 54.241 163.302 55.0335 166.7 57.1609C170.258 59.3867 172.565 62.6045 173.917 66.5446C173.942 66.6148 173.926 66.7048 173.937 66.9156Z" fill="black"/>
<path d="M270.027 22.723C262.916 25.7357 255.943 28.6922 248.866 31.6908C250.611 34.2988 252.966 35.732 255.923 35.985C259.981 36.3334 263.169 34.7962 265.206 31.1287C266.752 31.1287 268.282 31.1287 269.878 31.1287C269.814 31.3592 269.783 31.5503 269.71 31.7273C267.67 36.6032 264.148 39.5653 258.814 40.1948C255.511 40.5855 252.382 40.0796 249.531 38.3175C245.614 35.9007 243.405 32.3568 242.822 27.7985C242.367 24.2406 243.06 20.9104 244.985 17.8865C247.272 14.2949 250.522 12.0803 254.756 11.4817C261.244 10.5655 267.28 14.5731 269.432 20.7698C269.645 21.3853 269.814 22.0176 270.027 22.723ZM264.356 20.5563C263.419 18.6986 261.662 17.1136 259.715 16.3099C258.457 15.7899 257.15 15.4892 255.797 15.6831C252.214 16.1946 249.691 18.1787 248.156 21.4303C247.23 23.3919 247.118 25.4659 247.39 27.7142C253.086 25.3085 258.69 22.945 264.356 20.5563Z" fill="black"/>
<path d="M279.574 52.7261C279.574 60.7664 279.574 68.6803 279.574 76.6448C279.899 76.6673 280.149 76.701 280.396 76.701C282.31 76.7066 284.223 76.715 286.137 76.6982C287.142 76.6898 288.124 76.5239 289.064 76.1558C291.609 75.1581 293.231 72.7974 293.262 70.0349C293.276 68.6916 293.265 67.3454 293.265 65.9993C293.265 65.7182 293.265 65.4372 293.265 65.0915C294.797 65.0915 296.262 65.0915 297.777 65.0915C297.797 65.3304 297.836 65.5496 297.83 65.7716C297.799 67.3426 297.822 68.9164 297.707 70.4789C297.471 73.6434 296.09 76.212 293.523 78.1118C293.368 78.227 293.22 78.3535 293.018 78.5165C293.127 78.5952 293.192 78.6485 293.265 78.6907C296.127 80.4247 297.401 83.117 297.679 86.3179C297.847 88.2767 297.791 90.2552 297.833 92.2252C297.836 92.3349 297.799 92.4445 297.774 92.6075C296.312 92.6075 294.867 92.6075 293.332 92.6075C293.312 92.3826 293.273 92.1381 293.273 91.8964C293.267 90.3789 293.27 88.8641 293.27 87.3465C293.27 86.3039 293.088 85.295 292.67 84.3423C291.713 82.1615 289.88 81.1778 287.65 81.0373C285.062 80.8743 282.461 80.9305 279.865 80.8912C279.812 80.8912 279.759 80.9249 279.579 80.9867C279.537 82.212 279.565 83.4879 279.56 84.761C279.554 86.0762 279.56 87.3943 279.56 88.7095C279.56 89.991 279.56 91.2725 279.56 92.6103C278.067 92.6103 276.652 92.6103 275.241 92.6103C275.073 91.9836 275.03 53.8193 275.213 52.7205C275.895 52.7205 276.599 52.7205 277.303 52.7205C278.008 52.7261 278.718 52.7261 279.574 52.7261Z" fill="black"/>
<path d="M206.073 78.7219C205.932 83.8142 204.089 87.906 200.014 90.8512C198.03 92.2873 195.794 93.0517 193.341 93.2541C189.699 93.552 186.449 92.5712 183.621 90.292C180.663 87.9088 178.949 84.7556 178.46 81.0095C177.843 76.2797 179.058 72.0389 182.355 68.5344C184.914 65.814 188.094 64.4651 191.868 64.3189C198.718 64.0519 204.807 69.2426 205.854 76.4652C205.966 77.2549 206.008 78.053 206.073 78.7219ZM192.25 88.9374C192.735 88.8812 193.364 88.8447 193.973 88.7238C194.472 88.6255 194.963 88.4568 195.44 88.2686C199.557 86.6357 201.962 81.9875 201.431 77.727C201.097 75.06 200.028 72.8117 198.075 70.9794C195.016 68.1101 190.431 67.8656 187.078 70.3668C182.978 73.4244 181.589 79.4582 184.311 84.1261C186.042 87.091 188.616 88.7688 192.25 88.9374Z" fill="black"/>
<path d="M238.099 78.3816C238.113 83.0102 236.713 86.5597 233.78 89.4515C231.462 91.7391 228.654 92.9897 225.39 93.2539C221.548 93.563 218.161 92.4726 215.296 89.9349C212.095 87.0992 210.509 83.4824 210.422 79.1882C210.355 75.8467 211.216 72.8003 213.155 70.0827C215.504 66.7946 218.686 64.8105 222.71 64.3946C230.483 63.5937 235.854 68.6494 237.541 74.5736C237.939 75.9844 238.166 77.4177 238.099 78.3816ZM233.575 79.5085C233.575 76.4593 232.851 74.2195 231.339 72.2495C227.997 67.8935 222.118 67.3876 218.201 71.1844C215.888 73.4242 214.887 76.2233 215.041 79.458C215.148 81.7428 215.919 83.7493 217.342 85.5114C220.434 89.3447 225.696 90.0417 229.571 87.0992C232.248 85.0618 233.472 82.2711 233.575 79.5085Z" fill="black"/>
<path d="M269.064 73.4999C268.484 73.4999 267.953 73.4999 267.42 73.4999C266.62 73.4999 265.82 73.4662 265.024 73.5112C264.471 73.5421 264.162 73.3594 263.867 72.8704C262.821 71.1224 261.336 69.869 259.409 69.1748C255.721 67.8456 251.77 69.0231 249.306 72.1875C248.01 73.8512 247.25 75.7285 247.095 77.8447C246.789 82.0911 248.33 85.4607 251.964 87.7146C255.696 90.0275 261.311 89.0776 263.907 84.6682C264.008 84.4968 264.109 84.3281 264.229 84.1258C265.818 84.1258 267.409 84.1258 269.059 84.1258C268.991 84.3759 268.958 84.5979 268.876 84.8003C266.971 89.4148 263.595 92.2336 258.656 93.0626C250.898 94.361 244.09 89.1703 242.754 81.6583C241.682 75.647 243.593 70.5913 248.504 66.8451C250.715 65.1589 253.269 64.3636 256.08 64.327C258.78 64.2905 261.286 64.8807 263.578 66.3027C266.174 67.9158 267.919 70.2231 268.986 73.07C269.022 73.1711 269.028 73.2864 269.064 73.4999Z" fill="black"/>
<path d="M228.137 6.18433C229.706 6.18433 231.154 6.18433 232.691 6.18433C232.691 8.12626 232.691 10.026 232.691 12.0214C234.79 12.0214 236.802 12.0214 238.873 12.0214C238.873 13.5221 238.873 14.9329 238.873 16.4336C236.833 16.4336 234.818 16.4336 232.759 16.4336C232.739 16.768 232.711 17.0181 232.711 17.2654C232.708 21.5259 232.705 25.7892 232.717 30.0496C232.717 30.5302 232.781 31.0164 232.874 31.4913C233.376 34.0993 235.183 35.3668 237.796 35.496C238.186 35.5157 238.576 35.4988 238.983 35.4988C239.016 35.7096 239.047 35.8192 239.047 35.9288C239.05 37.1288 239.05 38.326 239.05 39.5879C238.761 39.6581 238.494 39.7677 238.225 39.779C236.732 39.8464 235.265 39.6919 233.856 39.1579C230.763 37.9832 229.105 35.6253 228.468 32.4806C228.26 31.4548 228.159 30.3897 228.157 29.3414C228.131 21.9896 228.143 14.6406 228.143 7.28878C228.137 6.94873 228.137 6.6115 228.137 6.18433Z" fill="black"/>
<path d="M223.462 12.0944C223.462 13.553 223.462 14.9694 223.462 16.4279C222.803 16.4898 222.16 16.5432 221.517 16.6106C218.246 16.9507 216.77 19.0106 216.323 21.568C216.107 22.799 216.012 24.0608 215.984 25.3086C215.939 27.4248 215.886 29.5297 215.42 31.6065C214.137 37.3031 209.496 39.6075 205.276 39.675C204.824 39.6834 204.369 39.675 203.861 39.675C203.861 38.1602 203.861 36.7185 203.861 35.2656C204.669 35.1813 205.464 35.1503 206.235 35.007C208.744 34.5433 210.45 33.1522 210.983 30.5836C211.23 29.3892 211.399 28.1611 211.435 26.9442C211.494 24.946 211.472 22.9479 211.817 20.9694C212.156 19.0275 212.796 17.2064 214.067 15.6635C215.748 13.6204 217.965 12.5497 220.544 12.1647C221.498 12.0213 222.455 11.9736 223.462 12.0944Z" fill="black"/>
<path d="M289.097 11.4622C289.097 12.9629 289.097 14.3203 289.097 15.7535C288.46 15.7535 287.871 15.7395 287.285 15.7564C283.199 15.8716 280.533 18.6004 280.525 22.7091C280.513 27.9981 280.522 33.29 280.522 38.579C280.522 38.9135 280.522 39.2507 280.522 39.6301C278.979 39.6301 277.533 39.6301 276.007 39.6301C275.99 39.3828 275.956 39.1355 275.956 38.891C275.954 33.6862 275.923 28.4815 275.968 23.2796C275.987 21.037 276.374 18.8505 277.483 16.8468C279.032 14.0449 281.434 12.4149 284.504 11.6954C285.997 11.3441 287.504 11.4959 289.097 11.4622Z" fill="black"/>
<path d="M194.405 12.0747C195.878 12.0747 197.295 12.0747 198.771 12.0747C198.771 21.256 198.771 30.3952 198.771 39.6609C198.058 39.6665 197.329 39.6721 196.602 39.6749C195.889 39.6778 195.176 39.6749 194.478 39.6749C194.287 39.0567 194.222 13.3618 194.405 12.0747Z" fill="black"/>
<path d="M194.326 7.85636C194.326 6.51302 194.284 5.29053 194.34 4.06804C194.388 3.03665 195.342 2.26943 196.464 2.24694C197.702 2.22165 198.712 2.99168 198.791 4.15516C198.869 5.34393 198.807 6.54112 198.807 7.85354C198.036 7.85354 197.303 7.85354 196.574 7.85354C195.867 7.85635 195.159 7.85636 194.326 7.85636Z" fill="black"/>
<path d="M139.71 148.255V105.535H151.869C153.295 105.535 154.53 105.555 155.576 105.594C156.62 105.633 157.754 105.718 158.975 105.844C160.195 105.971 161.245 106.162 162.123 106.417C163.001 106.673 163.896 106.999 164.803 107.401C165.712 107.803 166.473 108.306 167.087 108.913C167.702 109.52 168.26 110.234 168.757 111.054C169.253 111.875 169.621 112.845 169.857 113.96C170.092 115.076 170.207 116.327 170.207 117.715C170.207 120.002 169.84 121.939 169.107 123.524C168.375 125.109 167.272 126.354 165.796 127.264C164.32 128.175 162.603 128.83 160.641 129.229C158.677 129.631 156.348 129.83 153.654 129.83H147.15V148.258H139.71V148.255ZM147.152 123.462H153.539C154.965 123.462 156.177 123.383 157.173 123.226C158.169 123.069 159.081 122.79 159.912 122.388C160.742 121.987 161.363 121.402 161.772 120.629C162.182 119.856 162.387 118.904 162.387 117.768C162.387 117.142 162.333 116.577 162.227 116.065C162.12 115.557 161.988 115.113 161.831 114.73C161.674 114.348 161.424 114.011 161.085 113.719C160.742 113.426 160.439 113.185 160.176 112.999C159.912 112.814 159.502 112.656 158.946 112.53C158.391 112.403 157.931 112.305 157.569 112.238C157.207 112.17 156.657 112.12 155.913 112.091C155.169 112.063 154.586 112.044 154.156 112.032C153.727 112.024 153.062 112.018 152.164 112.018H147.155V123.462H147.152Z" fill="black"/>
<path d="M176.948 148.255V125.781C176.948 124.606 176.9 123.383 176.802 122.113C176.704 120.843 176.605 119.865 176.51 119.179L176.364 118.153H184.098V122.113C185.287 120.548 186.474 119.37 187.656 118.578C188.837 117.785 190.17 117.389 191.655 117.389C192.533 117.389 193.529 117.535 194.643 117.83V124.198C193.335 123.768 192.123 123.552 191.009 123.552C188.997 123.552 187.356 124.207 186.087 125.516C184.816 126.826 184.182 128.726 184.182 131.207V148.255H176.948Z" fill="black"/>
<path d="M214.036 148.929C211.418 148.929 209.086 148.505 207.035 147.653C204.984 146.802 203.328 145.65 202.068 144.191C200.808 142.735 199.851 141.072 199.197 139.203C198.544 137.334 198.215 135.336 198.215 133.203C198.215 131.03 198.546 129.001 199.212 127.115C199.877 125.227 200.847 123.555 202.127 122.099C203.407 120.643 205.065 119.494 207.108 118.651C209.148 117.81 211.449 117.389 214.008 117.389C216.626 117.389 218.95 117.805 220.981 118.637C223.013 119.469 224.643 120.612 225.875 122.071C227.104 123.529 228.028 125.202 228.645 127.087C229.26 128.976 229.568 131.033 229.568 133.264C229.568 135.358 229.245 137.328 228.6 139.177C227.955 141.027 227.012 142.685 225.774 144.152C224.534 145.619 222.904 146.782 220.88 147.642C218.857 148.502 216.576 148.929 214.036 148.929ZM213.89 143.061C215.316 143.061 216.565 142.791 217.639 142.255C218.714 141.718 219.559 140.973 220.173 140.026C220.788 139.076 221.248 138.025 221.551 136.873C221.854 135.718 222.006 134.467 222.006 133.118C222.006 130.243 221.327 127.885 219.968 126.048C218.61 124.21 216.595 123.291 213.918 123.291C212.103 123.291 210.568 123.746 209.319 124.654C208.068 125.564 207.167 126.742 206.608 128.189C206.053 129.636 205.772 131.28 205.772 133.118C205.772 134.937 206.03 136.572 206.55 138.02C207.066 139.467 207.955 140.67 209.215 141.628C210.478 142.584 212.036 143.061 213.89 143.061Z" fill="black"/>
</svg>
